<?xml version="1.0" encoding="UTF-8" ?>
<svg version="1.1" width="512" height="512" xmlns="http://www.w3.org/2000/svg" shape-rendering="crispEdges">
<rect x="0" y="0" width="512" height="121" fill="#90BBF4" />
<rect x="0" y="121" width="180" height="34" fill="#F55C5C" />
<rect x="180" y="121" width="332" height="34" fill="#90BBF4" />
<rect x="0" y="155" width="16" height="32" fill="#C03E41" />
<rect x="16" y="155" width="32" height="32" fill="#C8E0FF" />
<rect x="48" y="155" width="132" height="32" fill="#FFFFFF" />
<rect x="180" y="155" width="32" height="32" fill="#F55C5C" />
<rect x="212" y="155" width="300" height="32" fill="#90BBF4" />
<rect x="0" y="187" width="16" height="34" fill="#C8E0FF" />
<rect x="16" y="187" width="32" height="66" fill="#C03E41" />
<rect x="48" y="187" width="34" height="34" fill="#C8E0FF" />
<rect x="82" y="187" width="130" height="34" fill="#FFFFFF" />
<rect x="212" y="187" width="34" height="66" fill="#F55C5C" />
<rect x="246" y="187" width="266" height="34" fill="#90BBF4" />
<rect x="0" y="221" width="16" height="32" fill="#C03E41" />
<rect x="48" y="221" width="164" height="66" fill="#C03E41" />
<rect x="246" y="221" width="98" height="32" fill="#F55C5C" />
<rect x="344" y="221" width="168" height="32" fill="#90BBF4" />
<rect x="0" y="253" width="48" height="34" fill="#F55C5C" />
<rect x="212" y="253" width="66" height="65" fill="#C03E41" />
<rect x="278" y="253" width="164" height="34" fill="#F55C5C" />
<rect x="442" y="253" width="70" height="34" fill="#90BBF4" />
<rect x="0" y="287" width="48" height="31" fill="#C03E41" />
<rect x="48" y="287" width="164" height="31" fill="#C8E0FF" />
<rect x="278" y="287" width="34" height="31" fill="#C03E41" />
<rect x="312" y="287" width="164" height="31" fill="#F55C5C" />
<rect x="476" y="287" width="36" height="31" fill="#90BBF4" />
<rect x="0" y="318" width="16" height="34" fill="#C03E41" />
<rect x="16" y="318" width="66" height="34" fill="#C8E0FF" />
<rect x="82" y="318" width="64" height="66" fill="#3E4751" />
<rect x="146" y="318" width="34" height="34" fill="#2C333A" />
<rect x="180" y="318" width="66" height="34" fill="#C8E0FF" />
<rect x="246" y="318" width="32" height="66" fill="#C03E41" />
<rect x="278" y="318" width="34" height="34" fill="#C8E0FF" />
<rect x="312" y="318" width="32" height="34" fill="#FFFFFF" />
<rect x="344" y="318" width="132" height="34" fill="#F55C5C" />
<rect x="476" y="318" width="32" height="34" fill="#FFFFFF" />
<rect x="508" y="318" width="4" height="194" fill="#90BBF4" />
<rect x="0" y="352" width="48" height="98" fill="#C8E0FF" />
<rect x="48" y="352" width="34" height="132" fill="#3E4751" />
<rect x="146" y="352" width="34" height="132" fill="#3E4751" />
<rect x="180" y="352" width="32" height="160" fill="#2C333A" />
<rect x="212" y="352" width="34" height="98" fill="#C8E0FF" />
<rect x="278" y="352" width="34" height="32" fill="#C03E41" />
<rect x="312" y="352" width="32" height="32" fill="#F55C5C" />
<rect x="344" y="352" width="132" height="98" fill="#FFFFFF" />
<rect x="476" y="352" width="32" height="32" fill="#F55C5C" />
<rect x="82" y="384" width="64" height="66" fill="#C8E0FF" />
<rect x="246" y="384" width="66" height="66" fill="#C8E0FF" />
<rect x="312" y="384" width="32" height="66" fill="#FFFFFF" />
<rect x="476" y="384" width="32" height="66" fill="#FFFFFF" />
<rect x="0" y="450" width="48" height="62" fill="#90BBF4" />
<rect x="82" y="450" width="64" height="62" fill="#3E4751" />
<rect x="212" y="450" width="34" height="34" fill="#2C333A" />
<rect x="246" y="450" width="32" height="62" fill="#90BBF4" />
<rect x="278" y="450" width="164" height="34" fill="#2C333A" />
<rect x="442" y="450" width="66" height="62" fill="#90BBF4" />
<rect x="48" y="484" width="34" height="28" fill="#90BBF4" />
<rect x="146" y="484" width="34" height="28" fill="#2C333A" />
<rect x="212" y="484" width="34" height="28" fill="#90BBF4" />
<rect x="278" y="484" width="34" height="28" fill="#90BBF4" />
<rect x="312" y="484" width="98" height="28" fill="#2C333A" />
<rect x="410" y="484" width="32" height="28" fill="#90BBF4" />
</svg>